REM DIRINDEX 1\2\4,1\2\5,1\2\6,1\3\7,1\3\8
REM DIRNAME folder01,folder02,folder03,folder04,folder05,folder06,folder07,folder08
TITLE ""
FILE "031_Lesson 26_Output_Stage.mp3" MP3
  TRACK 01 AUDIO
    TITLE "0:"
    INDEX 01 00:00:00
  TRACK 02 AUDIO
    TITLE "6:cjc128_1879"
    INDEX 01 00:00:07
  TRACK 03 AUDIO
    TITLE "0:"
    INDEX 01 00:03:37
  TRACK 04 AUDIO
    TITLE "6:cjc128_1880"
    INDEX 01 00:04:27
  TRACK 05 AUDIO
    TITLE "0:"
    INDEX 01 00:06:31
  TRACK 06 AUDIO
    TITLE "4:cjc128_1881"
    INDEX 01 00:07:11
  TRACK 07 AUDIO
    TITLE "0:"
    INDEX 01 00:09:73
  TRACK 08 AUDIO
    TITLE "5:cjc128_1882"
    INDEX 01 00:12:42
  TRACK 09 AUDIO
    TITLE "0:"
    INDEX 01 00:14:70
  TRACK 10 AUDIO
    TITLE "6:cjc128_1883"
    INDEX 01 00:15:42
  TRACK 11 AUDIO
    TITLE "0:"
    INDEX 01 00:17:31
  TRACK 12 AUDIO
    TITLE "4:cjc128_1884"
    INDEX 01 00:18:11
  TRACK 13 AUDIO
    TITLE "0:"
    INDEX 01 00:21:41
  TRACK 14 AUDIO
    TITLE "5:cjc128_1885"
    INDEX 01 00:25:54
  TRACK 15 AUDIO
    TITLE "0:"
    INDEX 01 00:29:33
  TRACK 16 AUDIO
    TITLE "6:cjc128_1886"
    INDEX 01 00:30:10
  TRACK 17 AUDIO
    TITLE "0:"
    INDEX 01 00:32:05
  TRACK 18 AUDIO
    TITLE "4:cjc128_1887"
    INDEX 01 00:32:50
  TRACK 19 AUDIO
    TITLE "0:"
    INDEX 01 00:37:36
  TRACK 20 AUDIO
    TITLE "5:cjc128_1888"
    INDEX 01 00:41:59
  TRACK 21 AUDIO
    TITLE "0:"
    INDEX 01 00:45:39
  TRACK 22 AUDIO
    TITLE "6:cjc128_1889"
    INDEX 01 00:46:11
  TRACK 23 AUDIO
    TITLE "0:"
    INDEX 01 00:47:66
  TRACK 24 AUDIO
    TITLE "4:cjc128_1890"
    INDEX 01 00:48:40
  TRACK 25 AUDIO
    TITLE "0:"
    INDEX 01 00:51:62
  TRACK 26 AUDIO
    TITLE "5:cjc128_1891"
    INDEX 01 00:55:53
  TRACK 27 AUDIO
    TITLE "0:"
    INDEX 01 00:59:00
  TRACK 28 AUDIO
    TITLE "6:cjc128_1892"
    INDEX 01 00:59:63
  TRACK 29 AUDIO
    TITLE "0:"
    INDEX 01 01:01:62
  TRACK 30 AUDIO
    TITLE "4:cjc128_1893"
    INDEX 01 01:02:44
  TRACK 31 AUDIO
    TITLE "0:"
    INDEX 01 01:06:51
  TRACK 32 AUDIO
    TITLE "5:cjc128_1894"
    INDEX 01 01:10:35
  TRACK 33 AUDIO
    TITLE "0:"
    INDEX 01 01:13:51
  TRACK 34 AUDIO
    TITLE "6:cjc128_1895"
    INDEX 01 01:14:21
  TRACK 35 AUDIO
    TITLE "0:"
    INDEX 01 01:16:24
  TRACK 36 AUDIO
    TITLE "4:cjc128_1896"
    INDEX 01 01:16:73
  TRACK 37 AUDIO
    TITLE "0:"
    INDEX 01 01:20:40
  TRACK 38 AUDIO
    TITLE "5:cjc128_1897"
    INDEX 01 01:24:47
  TRACK 39 AUDIO
    TITLE "0:"
    INDEX 01 01:28:12
  TRACK 40 AUDIO
    TITLE "6:cjc128_1898"
    INDEX 01 01:28:59
  TRACK 41 AUDIO
    TITLE "0:"
    INDEX 01 01:30:64
  TRACK 42 AUDIO
    TITLE "4:cjc128_1899"
    INDEX 01 01:31:41
  TRACK 43 AUDIO
    TITLE "0:"
    INDEX 01 01:35:49
  TRACK 44 AUDIO
    TITLE "5:cjc128_1900"
    INDEX 01 01:39:21
  TRACK 45 AUDIO
    TITLE "0:"
    INDEX 01 01:42:43
  TRACK 46 AUDIO
    TITLE "6:cjc128_1901"
    INDEX 01 01:43:09
  TRACK 47 AUDIO
    TITLE "0:"
    INDEX 01 01:45:04
  TRACK 48 AUDIO
    TITLE "4:cjc128_1902"
    INDEX 01 01:45:55
  TRACK 49 AUDIO
    TITLE "0:"
    INDEX 01 01:48:58
  TRACK 50 AUDIO
    TITLE "5:cjc128_1903"
    INDEX 01 01:51:70
  TRACK 51 AUDIO
    TITLE "0:"
    INDEX 01 01:54:25
  TRACK 52 AUDIO
    TITLE "6:cjc128_1904"
    INDEX 01 01:55:13
  TRACK 53 AUDIO
    TITLE "0:"
    INDEX 01 01:57:21
  TRACK 54 AUDIO
    TITLE "4:cjc128_1905"
    INDEX 01 01:58:13
  TRACK 55 AUDIO
    TITLE "0:"
    INDEX 01 02:01:46
  TRACK 56 AUDIO
    TITLE "5:cjc128_1906"
    INDEX 01 02:05:03
  TRACK 57 AUDIO
    TITLE "0:"
    INDEX 01 02:07:63
  TRACK 58 AUDIO
    TITLE "6:cjc128_1907"
    INDEX 01 02:08:43
  TRACK 59 AUDIO
    TITLE "0:"
    INDEX 01 02:10:49
  TRACK 60 AUDIO
    TITLE "4:cjc128_1908"
    INDEX 01 02:11:45
  TRACK 61 AUDIO
    TITLE "0:"
    INDEX 01 02:15:68
  TRACK 62 AUDIO
    TITLE "5:cjc128_1909"
    INDEX 01 02:19:58
  TRACK 63 AUDIO
    TITLE "0:"
    INDEX 01 02:22:70
  TRACK 64 AUDIO
    TITLE "6:cjc128_1910"
    INDEX 01 02:23:46
  TRACK 65 AUDIO
    TITLE "0:"
    INDEX 01 02:25:61
  TRACK 66 AUDIO
    TITLE "4:cjc128_1911"
    INDEX 01 02:26:41
  TRACK 67 AUDIO
    TITLE "0:"
    INDEX 01 02:30:15
  TRACK 68 AUDIO
    TITLE "5:cjc128_1912"
    INDEX 01 02:33:62
  TRACK 69 AUDIO
    TITLE "0:"
    INDEX 01 02:36:74
  TRACK 70 AUDIO
    TITLE "6:cjc128_1913"
    INDEX 01 02:37:54
  TRACK 71 AUDIO
    TITLE "0:"
    INDEX 01 02:39:49
  TRACK 72 AUDIO
    TITLE "4:cjc128_1914"
    INDEX 01 02:40:29
  TRACK 73 AUDIO
    TITLE "0:"
    INDEX 01 02:43:74
  TRACK 74 AUDIO
    TITLE "5:cjc128_1915"
    INDEX 01 02:47:41
  TRACK 75 AUDIO
    TITLE "0:"
    INDEX 01 02:50:39
  TRACK 76 AUDIO
    TITLE "6:cjc128_1916"
    INDEX 01 02:51:09
  TRACK 77 AUDIO
    TITLE "0:"
    INDEX 01 02:53:10
  TRACK 78 AUDIO
    TITLE "4:cjc128_1917"
    INDEX 01 02:53:59
  TRACK 79 AUDIO
    TITLE "0:"
    INDEX 01 02:56:67
  TRACK 80 AUDIO
    TITLE "5:cjc128_1918"
    INDEX 01 03:00:63
  TRACK 81 AUDIO
    TITLE "0:"
    INDEX 01 03:04:06
  TRACK 82 AUDIO
    TITLE "6:cjc128_1919"
    INDEX 01 03:04:61
  TRACK 83 AUDIO
    TITLE "0:"
    INDEX 01 03:06:38
  TRACK 84 AUDIO
    TITLE "4:cjc128_1920"
    INDEX 01 03:07:22
  TRACK 85 AUDIO
    TITLE "0:"
    INDEX 01 03:10:18
  TRACK 86 AUDIO
    TITLE "5:cjc128_1921"
    INDEX 01 03:13:40
  TRACK 87 AUDIO
    TITLE "0:"
    INDEX 01 03:16:17
  TRACK 88 AUDIO
    TITLE "6:cjc128_1922"
    INDEX 01 03:16:66
  TRACK 89 AUDIO
    TITLE "0:"
    INDEX 01 03:18:59
  TRACK 90 AUDIO
    TITLE "4:cjc128_1923"
    INDEX 01 03:19:39
  TRACK 91 AUDIO
    TITLE "0:"
    INDEX 01 03:23:64
  TRACK 92 AUDIO
    TITLE "5:cjc128_1924"
    INDEX 01 03:28:06
  TRACK 93 AUDIO
    TITLE "0:"
    INDEX 01 03:31:65
  TRACK 94 AUDIO
    TITLE "6:cjc128_1925"
    INDEX 01 03:32:47
  TRACK 95 AUDIO
    TITLE "0:"
    INDEX 01 03:34:42
  TRACK 96 AUDIO
    TITLE "4:cjc128_1926"
    INDEX 01 03:35:18
  TRACK 97 AUDIO
    TITLE "0:"
    INDEX 01 03:37:25
  TRACK 98 AUDIO
    TITLE "5:cjc128_1927"
    INDEX 01 03:40:06
  TRACK 99 AUDIO
    TITLE "0:"
    INDEX 01 03:42:20
  TRACK 100 AUDIO
    TITLE "6:cjc128_1928"
    INDEX 01 03:42:71
  TRACK 101 AUDIO
    TITLE "0:"
    INDEX 01 03:44:66
  TRACK 102 AUDIO
    TITLE "4:cjc128_1929"
    INDEX 01 03:45:42
  TRACK 103 AUDIO
    TITLE "0:"
    INDEX 01 03:48:68
  TRACK 104 AUDIO
    TITLE "5:cjc128_1930"
    INDEX 01 03:52:72
  TRACK 105 AUDIO
    TITLE "0:"
    INDEX 01 03:56:34
  TRACK 106 AUDIO
    TITLE "6:cjc128_1931"
    INDEX 01 03:57:16
  TRACK 107 AUDIO
    TITLE "0:"
    INDEX 01 03:59:13
  TRACK 108 AUDIO
    TITLE "4:cjc128_1932"
    INDEX 01 04:00:00
  TRACK 109 AUDIO
    TITLE "0:"
    INDEX 01 04:02:33
  TRACK 110 AUDIO
    TITLE "5:cjc128_1933"
    INDEX 01 04:05:53
  TRACK 111 AUDIO
    TITLE "0:"
    INDEX 01 04:08:24
  TRACK 112 AUDIO
    TITLE "6:cjc128_1934"
    INDEX 01 04:09:05
  TRACK 113 AUDIO
    TITLE "0:"
    INDEX 01 04:11:06
  TRACK 114 AUDIO
    TITLE "4:cjc128_1935"
    INDEX 01 04:11:53
  TRACK 115 AUDIO
    TITLE "0:"
    INDEX 01 04:15:73
  TRACK 116 AUDIO
    TITLE "5:cjc128_1936"
    INDEX 01 04:21:07
  TRACK 117 AUDIO
    TITLE "0:"
    INDEX 01 04:25:65
  TRACK 118 AUDIO
    TITLE "6:cjc128_1937"
    INDEX 01 04:26:37
  TRACK 119 AUDIO
    TITLE "0:"
    INDEX 01 04:28:34
  TRACK 120 AUDIO
    TITLE "4:cjc128_1938"
    INDEX 01 04:29:26
  TRACK 121 AUDIO
    TITLE "0:"
    INDEX 01 04:33:21
  TRACK 122 AUDIO
    TITLE "5:cjc128_1939"
    INDEX 01 04:37:57
  TRACK 123 AUDIO
    TITLE "0:"
    INDEX 01 04:41:23
  TRACK 124 AUDIO
    TITLE "6:cjc128_1940"
    INDEX 01 04:42:17
  TRACK 125 AUDIO
    TITLE "0:"
    INDEX 01 04:44:13
  TRACK 126 AUDIO
    TITLE "4:cjc128_1941"
    INDEX 01 04:44:68
  TRACK 127 AUDIO
    TITLE "0:"
    INDEX 01 04:48:00
  TRACK 128 AUDIO
    TITLE "5:cjc128_1942"
    INDEX 01 04:51:49
  TRACK 129 AUDIO
    TITLE "0:"
    INDEX 01 04:54:49
  TRACK 130 AUDIO
    TITLE "6:cjc128_1943"
    INDEX 01 04:55:25
  TRACK 131 AUDIO
    TITLE "0:"
    INDEX 01 04:57:16
  TRACK 132 AUDIO
    TITLE "4:cjc128_1944"
    INDEX 01 04:57:69
  TRACK 133 AUDIO
    TITLE "0:"
    INDEX 01 05:01:41
  TRACK 134 AUDIO
    TITLE "5:cjc128_1945"
    INDEX 01 05:05:33
  TRACK 135 AUDIO
    TITLE "0:"
    INDEX 01 05:09:08
